<svg width="512" height="512" viewBox="0 0 512 512" xmlns="http://www.w3.org/2000/svg" role="img"
  aria-label="Lambda Musika favicon">
  <style>
    .fg { fill: #ffffff }
    .bg { fill: #0b0b0b }
    @media (prefers-color-scheme: dark) {
    .fg { fill: #0b0b0b }
    .bg { fill: #ffffff }
    }
  </style>
  <rect
    class="bg"
    id="rect2"
    x="0"
    y="0"
    width="512"
    height="512"
    rx="64"
  />
  <path
    class="fg"
    d="m 150.00293,84.667902 c -5.96954,-0.243455 -12.01355,0.299969 -18.13281,1.626953 -12.2385,2.65398 -26.05558,9.152644 -41.451172,19.498045 -5.433737,3.65132 -10.652271,7.62319 -15.65625,11.91406 -4.845364,3.87482 -9.015159,7.44995 -12.509766,10.72656 l 15.255859,22.70313 c 3.034119,-2.65771 6.369952,-5.51666 10.007813,-8.58008 3.939736,-3.26628 8.628761,-6.72563 14.062496,-10.37695 12.9806,-8.7226 24.12842,-12.34645 33.44532,-10.8711 9.17365,1.26217 19.25433,4.85423 30.24414,10.77539 l 28.3418,15.76758 6.08398,172.21289 c -20.17998,0.10645 -38.71215,7.32232 -55.59961,21.64649 -16.86199,14.43144 -25.29296,30.6864 -25.29297,48.76367 0,11.54514 3.87369,20.58311 11.6211,27.11523 7.74739,6.53212 18.53167,9.79883 32.35546,9.79883 20.20401,0 38.73957,-7.21506 55.60157,-21.64648 17.01389,-14.43144 27.58526,-30.80482 25.51953,-48.76367 l -1.11719,-9.70899 -2.75977,-68.21289 19.58399,10.37891 c 11.13306,6.13434 21.22987,9.09616 30.29101,8.88672 9.21976,-0.62546 19.41465,-4.68984 30.58399,-12.19532 5.13187,-3.44847 9.52449,-7.02025 13.17773,-10.71289 4.09836,-3.68231 7.44838,-7.17148 10.05274,-10.46875 l -13.9668,-20.78515 c -1.36612,1.22743 -3.26495,2.96673 -5.69531,5.21875 -2.12849,2.04916 -4.39946,3.885 -6.81445,5.50781 -9.3581,6.28838 -20.77295,5.60485 -34.24415,-2.05274 L 238.1045,231.64446 c -0.45543,-11.75282 -1.43488,-23.30988 -2.9375,-34.66797 -1.20195,-11.57 -2.95111,-21.99815 -5.24805,-31.28515 l 1.81055,-1.2168 c 3.92928,3.23903 9.18071,7.13783 15.75,11.69727 6.72791,4.1434 13.74816,8.39871 21.06445,12.76562 7.47491,3.95088 14.13915,7.67248 19.99219,11.16602 l 77.10546,43.34179 c 11.13307,6.13434 21.22988,9.09616 30.29102,8.88672 9.21976,-0.62546 19.41465,-4.68983 30.58398,-12.19531 5.13187,-3.44847 9.52645,-7.02025 13.17969,-10.71289 4.09836,-3.68231 7.44642,-7.17148 10.05078,-10.46875 l -13.96679,-20.78516 c -1.36612,1.22743 -3.26496,2.96673 -5.69532,5.21875 -2.12849,2.04916 -4.39751,3.885 -6.8125,5.50781 -9.3581,6.28838 -20.77294,5.60486 -34.24414,-2.05273 L 207.12207,105.35345 C 192.4741,97.24883 179.32815,91.383611 167.68848,87.755792 c -5.81983,-1.813909 -11.716,-2.844427 -17.68555,-3.08789 z"
  />
</svg>
